<svg xmlns="http://www.w3.org/2000/svg" viewBox="0 0 64 64" width="64" height="64">
  <!-- Bay/bridge arch -->
  <path d="M8 44 Q32 20 56 44" stroke="#0891b2" stroke-width="4" fill="none" stroke-linecap="round"/>
  <!-- Bridge cables -->
  <line x1="20" y1="36" x2="20" y2="44" stroke="#0891b2" stroke-width="2" stroke-linecap="round"/>
  <line x1="32" y1="28" x2="32" y2="44" stroke="#0891b2" stroke-width="2" stroke-linecap="round"/>
  <line x1="44" y1="36" x2="44" y2="44" stroke="#0891b2" stroke-width="2" stroke-linecap="round"/>
  <!-- Kid figure -->
  <circle cx="32" cy="16" r="6" fill="#f59e0b"/>
  <path d="M28 22 Q32 28 36 22" stroke="#f59e0b" stroke-width="2.5" fill="none" stroke-linecap="round"/>
  <!-- Water waves -->
  <path d="M4 48 Q10 44 16 48 Q22 52 28 48 Q34 44 40 48 Q46 52 52 48 Q58 44 60 48" stroke="#22d3ee" stroke-width="2" fill="none" stroke-linecap="round"/>
  <path d="M4 54 Q10 50 16 54 Q22 58 28 54 Q34 50 40 54 Q46 58 52 54 Q58 50 60 54" stroke="#67e8f9" stroke-width="1.5" fill="none" stroke-linecap="round" opacity="0.6"/>
</svg>
